HIERARCHY
ROOT Bip01
{
  OFFSET 15.7446 31.5610 57.6474
  CHANNELS 6 Xposition Yposition Zposition Zrotation Xrotation Yrotation
  JOINT Bip01_Footsteps
  {
    OFFSET 53.2821 -0.0001 8.1953
    CHANNELS 6 Xposition Yposition Zposition Zrotation Xrotation Yrotation
    End Site
    {
      OFFSET 0 0 0
    }
  }
  JOINT b_Hips
  {
    OFFSET 0.0000 0.0000 0.0000
    CHANNELS 6 Xposition Yposition Zposition Zrotation Xrotation Yrotation
    JOINT b_Spine
    {
      OFFSET 10.4409 -1.6220 0.0000
      CHANNELS 6 Xposition Yposition Zposition Zrotation Xrotation Yrotation
      JOINT b_Spine1
      {
        OFFSET 8.8514 -0.0090 -0.0000
        CHANNELS 6 Xposition Yposition Zposition Zrotation Xrotation Yrotation
        JOINT b_Spine2
        {
          OFFSET 11.3035 -0.0088 0.0000
          CHANNELS 6 Xposition Yposition Zposition Zrotation Xrotation Yrotation
          JOINT b_Spine3
          {
            OFFSET 11.0297 -0.0113 0.0000
            CHANNELS 6 Xposition Yposition Zposition Zrotation Xrotation Yrotation
            JOINT b__Neck
            {
              OFFSET 14.9480 -3.1935 0.0000
              CHANNELS 6 Xposition Yposition Zposition Zrotation Xrotation Yrotation
              JOINT b__Neck1
              {
                OFFSET 5.4958 -0.0043 -0.0000
                CHANNELS 6 Xposition Yposition Zposition Zrotation Xrotation Yrotation
                JOINT b__Neck2
                {
                  OFFSET 5.5266 -0.0049 -0.0000
                  CHANNELS 6 Xposition Yposition Zposition Zrotation Xrotation Yrotation
                  JOINT b_Head
                  {
                    OFFSET 6.1093 0.0000 -0.0000
                    CHANNELS 6 Xposition Yposition Zposition Zrotation Xrotation Yrotation
                    JOINT Bip01_HeadNub
                    {
                      OFFSET 28.6688 -0.0000 0.0000
                      CHANNELS 6 Xposition Yposition Zposition Zrotation Xrotation Yrotation
                      End Site
                      {
                        OFFSET 0 0 0
                      }
                    }
                    JOINT Dog_Jaw
                    {
                      OFFSET 0.6075 2.3575 -0.0000
                      CHANNELS 6 Xposition Yposition Zposition Zrotation Xrotation Yrotation
                      End Site
                      {
                        OFFSET 0 0 0
                      }
                    }
                  }
                }
              }
            }
            JOINT b_LeftClav
            {
              OFFSET 10.4683 2.1257 3.5190
              CHANNELS 6 Xposition Yposition Zposition Zrotation Xrotation Yrotation
              JOINT b_LeftArm
              {
                OFFSET 7.3453 0.0000 0.0000
                CHANNELS 6 Xposition Yposition Zposition Zrotation Xrotation Yrotation
                JOINT b_LeftForeArm
                {
                  OFFSET 23.3863 -0.0000 0.0000
                  CHANNELS 6 Xposition Yposition Zposition Zrotation Xrotation Yrotation
                  JOINT b_LeftHand
                  {
                    OFFSET 21.5040 0.0000 -0.0000
                    CHANNELS 6 Xposition Yposition Zposition Zrotation Xrotation Yrotation
                    JOINT b__LeftFinger
                    {
                      OFFSET 1.5926 6.2126 -0.0138
                      CHANNELS 6 Xposition Yposition Zposition Zrotation Xrotation Yrotation
                      JOINT Bip01_L_Finger0Nub
                      {
                        OFFSET 23.3657 0.0000 0.0000
                        CHANNELS 6 Xposition Yposition Zposition Zrotation Xrotation Yrotation
                        End Site
                        {
                          OFFSET 0 0 0
                        }
                      }
                    }
                  }
                }
                JOINT Dog_LeftArmor002
                {
                  OFFSET 4.2035 4.4457 12.7354
                  CHANNELS 6 Xposition Yposition Zposition Zrotation Xrotation Yrotation
                  End Site
                  {
                    OFFSET 0 0 0
                  }
                }
              }
            }
            JOINT b_RightClav
            {
              OFFSET 10.4683 2.1257 -3.5189
              CHANNELS 6 Xposition Yposition Zposition Zrotation Xrotation Yrotation
              JOINT b_RightArm
              {
                OFFSET 7.3453 0.0000 -0.0000
                CHANNELS 6 Xposition Yposition Zposition Zrotation Xrotation Yrotation
                JOINT b_RightForeArm
                {
                  OFFSET 23.3863 0.0000 0.0000
                  CHANNELS 6 Xposition Yposition Zposition Zrotation Xrotation Yrotation
                  JOINT b_RightHand
                  {
                    OFFSET 21.5040 0.0000 0.0000
                    CHANNELS 6 Xposition Yposition Zposition Zrotation Xrotation Yrotation
                    JOINT b_RightFinger
                    {
                      OFFSET 1.5926 6.2126 0.0138
                      CHANNELS 6 Xposition Yposition Zposition Zrotation Xrotation Yrotation
                      JOINT Bip01_R_Finger0Nub
                      {
                        OFFSET 23.3657 0.0000 0.0000
                        CHANNELS 6 Xposition Yposition Zposition Zrotation Xrotation Yrotation
                        End Site
                        {
                          OFFSET 0 0 0
                        }
                      }
                    }
                  }
                }
                JOINT Dog_RightArmor002
                {
                  OFFSET 4.2034 4.4457 -12.7351
                  CHANNELS 6 Xposition Yposition Zposition Zrotation Xrotation Yrotation
                  End Site
                  {
                    OFFSET 0 0 0
                  }
                }
              }
            }
          }
        }
      }
    }
    JOINT b_Tail001
    {
      OFFSET -4.7889 3.8598 0.8608
      CHANNELS 6 Xposition Yposition Zposition Zrotation Xrotation Yrotation
      JOINT b_Tail002
      {
        OFFSET 4.2212 0.0000 -0.0000
        CHANNELS 6 Xposition Yposition Zposition Zrotation Xrotation Yrotation
        JOINT b_Tail003
        {
          OFFSET 4.9750 0.0000 -0.0000
          CHANNELS 6 Xposition Yposition Zposition Zrotation Xrotation Yrotation
          JOINT b_Tail004
          {
            OFFSET 4.7171 -0.0000 0.0000
            CHANNELS 6 Xposition Yposition Zposition Zrotation Xrotation Yrotation
            JOINT b_Tail005
            {
              OFFSET 9.7173 -0.0000 -0.0001
              CHANNELS 6 Xposition Yposition Zposition Zrotation Xrotation Yrotation
              JOINT b_Tail006
              {
                OFFSET 8.2617 0.0001 0.0000
                CHANNELS 6 Xposition Yposition Zposition Zrotation Xrotation Yrotation
                JOINT b_Tail007
                {
                  OFFSET 9.7599 -0.0001 0.0000
                  CHANNELS 6 Xposition Yposition Zposition Zrotation Xrotation Yrotation
                  JOINT b_Tail008
                  {
                    OFFSET 11.1530 0.0000 -0.0000
                    CHANNELS 6 Xposition Yposition Zposition Zrotation Xrotation Yrotation
                    JOINT b_Tail009
                    {
                      OFFSET 10.3039 0.0000 0.0000
                      CHANNELS 6 Xposition Yposition Zposition Zrotation Xrotation Yrotation
                      End Site
                      {
                        OFFSET 0 0 0
                      }
                    }
                  }
                }
              }
            }
          }
        }
      }
    }
    JOINT Dog_LeftTail001
    {
      OFFSET -11.9878 -1.7857 10.1900
      CHANNELS 6 Xposition Yposition Zposition Zrotation Xrotation Yrotation
      JOINT Dog_LeftTail002
      {
        OFFSET 8.4424 0.0000 0.0000
        CHANNELS 6 Xposition Yposition Zposition Zrotation Xrotation Yrotation
        JOINT Dog_LeftTail003
        {
          OFFSET 9.9501 0.0000 -0.0000
          CHANNELS 6 Xposition Yposition Zposition Zrotation Xrotation Yrotation
          JOINT Dog_LeftTail004
          {
            OFFSET 9.4342 0.0000 -0.0000
            CHANNELS 6 Xposition Yposition Zposition Zrotation Xrotation Yrotation
            JOINT Dog_LeftTail005
            {
              OFFSET 9.7173 0.0001 0.0001
              CHANNELS 6 Xposition Yposition Zposition Zrotation Xrotation Yrotation
              JOINT Dog_LeftTail006
              {
                OFFSET 8.2618 -0.0000 -0.0000
                CHANNELS 6 Xposition Yposition Zposition Zrotation Xrotation Yrotation
                JOINT Dog_LeftTail007
                {
                  OFFSET 9.7599 0.0000 0.0000
                  CHANNELS 6 Xposition Yposition Zposition Zrotation Xrotation Yrotation
                  JOINT Dog_LeftTail008
                  {
                    OFFSET 11.1529 -0.0001 -0.0001
                    CHANNELS 6 Xposition Yposition Zposition Zrotation Xrotation Yrotation
                    JOINT Dog_LeftTail009
                    {
                      OFFSET 10.3039 -0.0000 0.0000
                      CHANNELS 6 Xposition Yposition Zposition Zrotation Xrotation Yrotation
                      End Site
                      {
                        OFFSET 0 0 0
                      }
                    }
                  }
                }
              }
            }
          }
        }
      }
    }
    JOINT b_LeftLegUpper
    {
      OFFSET -0.0000 0.0000 9.9422
      CHANNELS 6 Xposition Yposition Zposition Zrotation Xrotation Yrotation
      JOINT b_LeftLeg
      {
        OFFSET 25.9795 0.0000 -0.0000
        CHANNELS 6 Xposition Yposition Zposition Zrotation Xrotation Yrotation
        JOINT b_LeftLeg1
        {
          OFFSET 21.2087 0.0000 -0.0000
          CHANNELS 6 Xposition Yposition Zposition Zrotation Xrotation Yrotation
          JOINT b_LeftAnkle
          {
            OFFSET 10.4341 -0.0000 0.0000
            CHANNELS 6 Xposition Yposition Zposition Zrotation Xrotation Yrotation
            JOINT b_LeftToe
            {
              OFFSET 5.6676 6.5983 0.0000
              CHANNELS 6 Xposition Yposition Zposition Zrotation Xrotation Yrotation
              JOINT Bip01_L_Toe0Nub
              {
                OFFSET 8.6279 0.0000 -0.0000
                CHANNELS 6 Xposition Yposition Zposition Zrotation Xrotation Yrotation
                End Site
                {
                  OFFSET 0 0 0
                }
              }
            }
            JOINT b_LeftToe002
            {
              OFFSET 5.6741 -2.3619 -0.5306
              CHANNELS 6 Xposition Yposition Zposition Zrotation Xrotation Yrotation
              End Site
              {
                OFFSET 0 0 0
              }
            }
          }
        }
      }
      JOINT Dog_LeftArmor001
      {
        OFFSET -2.6287 -3.4254 -3.1462
        CHANNELS 6 Xposition Yposition Zposition Zrotation Xrotation Yrotation
        End Site
        {
          OFFSET 0 0 0
        }
      }
    }
    JOINT b_RightLegUpper
    {
      OFFSET 0.0000 -0.0000 -9.9422
      CHANNELS 6 Xposition Yposition Zposition Zrotation Xrotation Yrotation
      JOINT b_RightLeg
      {
        OFFSET 25.9795 0.0000 0.0000
        CHANNELS 6 Xposition Yposition Zposition Zrotation Xrotation Yrotation
        JOINT b_RightLeg1
        {
          OFFSET 21.2087 0.0000 0.0000
          CHANNELS 6 Xposition Yposition Zposition Zrotation Xrotation Yrotation
          JOINT b_RightAnkle
          {
            OFFSET 10.4341 -0.0000 -0.0000
            CHANNELS 6 Xposition Yposition Zposition Zrotation Xrotation Yrotation
            JOINT b_RightToe
            {
              OFFSET 5.6676 6.5983 -0.0000
              CHANNELS 6 Xposition Yposition Zposition Zrotation Xrotation Yrotation
              JOINT Bip01_R_Toe0Nub
              {
                OFFSET 8.6279 -0.0000 0.0000
                CHANNELS 6 Xposition Yposition Zposition Zrotation Xrotation Yrotation
                End Site
                {
                  OFFSET 0 0 0
                }
              }
            }
            JOINT b_RightToe002
            {
              OFFSET 5.6741 -2.3620 0.5304
              CHANNELS 6 Xposition Yposition Zposition Zrotation Xrotation Yrotation
              End Site
              {
                OFFSET 0 0 0
              }
            }
          }
        }
      }
      JOINT Dog_RightArmor001
      {
        OFFSET -2.6288 -3.4254 3.1460
        CHANNELS 6 Xposition Yposition Zposition Zrotation Xrotation Yrotation
        End Site
        {
          OFFSET 0 0 0
        }
      }
    }
  }
}
MOTION
Frames: 4
Frame Time: 0.03333333
-65.2454 62.0326 226.474 -90.4797 -8.73206 23.6293 53.2821 -6.35e-05 8.19533 -90 -81.2558 -180 0 0 0 -89.9999 -4.1675e-14 -90 10.4409 -1.622 1.78e-05 -8.14582 6.45652 -3.97654 8.8514 -0.0089989 0 -2.36302 7.25173 1.14811 11.3035 -0.0087814 0 -1.80493 3.09557 -0.873304 11.0297 -0.0113029 1.42109e-14 -0.0275415 2.23647 -5.12256 14.948 -3.19349 8.6e-06 -41.3484 -19.0827 -15.4266 5.49578 -0.0042877 0 11.7151 -2.4039 11.3174 5.52657 -0.0048637 0 8.11403 14.4782 -6.8244 6.10934 2.13163e-14 -1.42109e-14 37.4791 -10.5824 -6.66139 28.6688 0 0 -3.18055e-15 -1.59028e-15 -0 0.607494 2.35752 -7.6e-06 -156.427 -0.000147608 180 10.4683 2.1257 3.51896 -168.005 13.2658 -102.856 7.34534 0 1.9e-06 -83.7528 -77.3236 18.7954 23.3863 -1.9e-06 1e-06 -49.0839 0.536222 -1.27733 21.504 -2.84217e-14 0 22.5637 2.77901 5.21846 1.59262 6.21256 -0.0138378 17.9114 -33.3842 22.5548 23.3657 0 1e-06 -5.96354e-15 3.18055e-15 3.97569e-16 4.20345 4.44573 12.7354 172.377 0.21838 -87.1877 10.4683 2.12572 -3.51895 178.487 14.5674 99.5534 7.34534 0 -1.9e-06 67.9893 76.3339 -148.518 23.3863 1.9e-06 0 -33.759 0 -7.15625e-15 21.504 3.8e-06 1e-06 -122.709 -24.3749 11.4134 1.59262 6.21257 0.0138388 -12.0757 -0.097665 2.57428 23.3657 0 1e-06 180 1.74931e-14 -1.03368e-14 4.20337 4.4457 -12.7351 172.377 -0.218352 87.1876 -4.78895 3.85983 0.86083 -178.523 13.1954 26.7874 4.22117 3.815e-05 -5.7e-06 23.4815 26.9982 -5.03123 4.97505 3.8e-06 -6.7e-06 -2.91836 8.5502 1.25827 4.7171 -1.145e-05 2.86e-05 -1.59028e-15 -7.95139e-16 3.18055e-15 9.71734 -4.2e-05 -5.72e-05 4.41391e-32 7.95139e-16 -3.18055e-15 8.26175 8.01e-05 5.7e-06 -1.59028e-15 3.18055e-15 -3.18055e-15 9.75986 -6.48e-05 2.86e-05 -8.82781e-32 -1.59028e-15 -3.18055e-15 11.153 2.67e-05 -2.1e-05 -0 0 -0 10.3039 1.14e-05 4.2e-05 -0 0 -0 -11.9878 -1.78568 10.19 170.606 3.62573 1.11034 8.44238 1.53e-05 4.2e-05 -1.59028e-15 -1.98785e-15 -1.59028e-15 9.95005 7.6e-06 -2.86e-05 -4.41391e-32 -1.59028e-15 -1.59028e-15 9.43418 1.42109e-14 -4.58e-05 -4.41391e-32 -1.59028e-15 -1.59028e-15 9.71733 6.87e-05 0.0001106 -0 -3.97569e-16 -0 8.26175 -2.29e-05 -4.77e-05 1.59028e-15 -7.95139e-16 -0 9.75994 2.86e-05 3.05e-05 -0 -3.97569e-16 -0 11.1529 -7.25e-05 -5.91e-05 -0 0 1.59028e-15 10.3039 -7.6e-06 -1.42109e-14 1.59028e-15 -7.95139e-16 -0 -1.14e-05 1.53e-05 9.94222 -117.568 2.68966 170.521 25.9795 1e-06 0 -4.68377 -0.887484 -0.823575 21.2087 1.9e-06 -1e-06 33.7022 0.382234 -14.1476 10.4341 -1.9e-06 1e-06 -3.75232 -1.94497 4.80961 5.66763 6.59832 1.42109e-14 113.486 30.8337 -15.966 8.62785 -2.84217e-14 0 -180 -3.65764e-14 1.27222e-14 5.67414 -2.36194 -0.530567 -75.8081 4.38708 5.33411 -2.62874 -3.42539 -3.14618 29.7499 1.82752 90.2264 1.53e-05 -1.53e-05 -9.94222 -115.776 -9.79758 173.278 25.9795 0 1e-06 -64.3535 -1.33203 2.23001 21.2087 -1.42109e-14 1.9e-06 67.7855 -12.0974 11.9952 10.4341 -1.9e-06 -1e-06 -172.44 27.7439 161.753 5.66763 6.59831 2.84217e-14 95.1494 31.3402 -36.749 8.62785 0 -1.42109e-14 3.18055e-15 0 -1.98785e-16 5.67412 -2.36198 0.530356 -75.808 -4.38692 -5.33418 -2.62878 -3.42545 3.14601 29.7498 -1.82753 -90.2266
-64.5149 60.2731 235.083 -90.7802 -13.8807 22.787 53.2821 -6.35e-05 8.19533 -90 -81.2558 -180 0 0 0 -89.9999 -5.43972e-14 -90 10.4409 -1.622 1.78e-05 -6.17299 8.79403 -1.92133 8.8514 -0.0089989 0 -6.01619 8.18865 1.95199 11.3035 -0.0087814 0 -4.78308 1.3133 -1.21368 11.0297 -0.0113029 0 0.205851 0.201792 -2.33921 14.948 -3.19349 8.6e-06 -32.7456 -19.9614 -15.8497 5.49578 -0.0042877 0 9.03619 -1.64517 11.4412 5.52657 -0.0048637 0 8.33952 14.9811 -7.07785 6.10934 3.55271e-14 -2.84217e-14 37.644 -10.516 -6.53062 28.6688 0 2.84217e-14 -2.64834e-31 -4.77083e-15 -3.18055e-15 0.607494 2.35752 -7.6e-06 -156.427 -0.000147608 180 10.4683 2.1257 3.51896 -170.961 9.48174 -101.089 7.34534 0 1.9e-06 -88.9112 -82.0804 13.1161 23.3863 -1.9e-06 1e-06 -56.7227 0.701271 -1.19472 21.504 0 -7.10543e-15 11.5493 1.72847 5.65295 1.59262 6.21256 -0.0138378 14.0014 -39.4886 13.9858 23.3657 2.84217e-14 1e-06 -1.76556e-31 3.18055e-15 3.18055e-15 4.20345 4.44573 12.7354 172.377 0.21838 -87.1877 10.4683 2.12572 -3.51895 -175.033 8.52633 85.5611 7.34534 0 -1.9e-06 -11.5351 74.7485 -61.9683 23.3863 1.9e-06 0 -37.2172 3.18055e-15 -0 21.504 3.8e-06 1e-06 -124.711 -20.5378 14.6897 1.59262 6.21257 0.0138388 -13.9455 -2.7631 3.08301 23.3657 0 1e-06 180 9.54166e-15 1.59028e-15 4.20337 4.4457 -12.7351 172.377 -0.218352 87.1876 -4.78895 3.85983 0.86083 174.726 12.1646 30.238 4.22117 3.815e-05 -5.7e-06 14.5063 33.1169 4.63538 4.97505 3.8e-06 -6.7e-06 -1.75089 8.17629 1.3879 4.7171 -1.145e-05 2.86e-05 -7.95139e-16 -1.59028e-15 -3.18055e-15 9.71734 -4.2e-05 -5.72e-05 -5.56597e-15 3.18055e-15 -6.36111e-15 8.26175 8.01e-05 5.7e-06 6.36111e-15 3.18055e-15 3.18055e-15 9.75986 -6.48e-05 2.86e-05 8.74653e-15 -3.18055e-15 -0 11.153 2.67e-05 -2.1e-05 -3.18055e-15 -1.59028e-15 -3.18055e-15 10.3039 1.14e-05 4.2e-05 -7.95139e-16 1.59028e-15 -0 -11.9878 -1.78568 10.19 170.606 3.62573 1.11034 8.44238 1.53e-05 4.2e-05 1.59028e-15 -3.97569e-16 6.36111e-15 9.95005 7.6e-06 -2.86e-05 3.18055e-15 1.59028e-15 -0 9.43418 -1.42109e-14 -4.58e-05 -1.59028e-15 7.95139e-16 -3.18055e-15 9.71733 6.87e-05 0.0001106 1.59028e-15 1.59028e-15 3.18055e-15 8.26175 -2.29e-05 -4.77e-05 -0 -1.19271e-15 -0 9.75994 2.86e-05 3.05e-05 -0 -1.19271e-15 -0 11.1529 -7.25e-05 -5.91e-05 -2.20695e-32 -3.97569e-16 -3.18055e-15 10.3039 -7.6e-06 0 -1.59028e-15 -1.98785e-15 -3.18055e-15 -1.14e-05 1.53e-05 9.94222 -114.214 17.4416 172.761 25.9795 1e-06 0 -21.5581 -0.610209 -1.04572 21.2087 1.9e-06 -1e-06 41.6353 10.5884 -22.262 10.4341 -1.9e-06 1e-06 -2.44756 -1.83475 4.85264 5.66763 6.59832 -1.42109e-14 106.643 28.0899 -15.5805 8.62785 0 0 -180 -1.59028e-15 6.36111e-15 5.67414 -2.36194 -0.530567 -75.8081 4.38708 5.33411 -2.62874 -3.42539 -3.14618 29.7499 1.82752 90.2264 1.53e-05 -1.53e-05 -9.94222 -123.055 -10.1828 172.666 25.9795 0 1e-06 -74.3111 -1.69761 1.96611 21.2087 0 1.9e-06 90.3199 -9.95455 15.9631 10.4341 -1.9e-06 -1e-06 -178.455 30.1838 161.04 5.66763 6.59831 0 96.124 31.7278 -38.555 8.62785 0 -1.42109e-14 -3.18055e-15 -7.95139e-16 -0 5.67412 -2.36198 0.530355 -75.808 -4.38692 -5.33418 -2.62878 -3.42545 3.14601 29.7498 -1.82753 -90.2266
-63.4492 58.5829 242.962 -92.3563 -21.4051 19.0569 53.2821 -6.35e-05 8.19533 -90 -81.2558 -180 0 0 0 -89.9999 -5.43972e-14 -90 10.4409 -1.622 1.78e-05 -7.91888 7.65306 0.986147 8.8514 -0.0089989 0 -4.88819 6.09643 5.04526 11.3035 -0.0087814 0 -4.26245 1.66868 1.20018 11.0297 -0.0113029 0 -0.157792 0.00296989 -0.758027 14.948 -3.19349 8.6e-06 -29.1849 -17.2821 -13.6648 5.49578 -0.0042877 0 7.31419 -1.22576 9.06617 5.52657 -0.0048637 0 8.40843 15.9911 -7.06511 6.10934 2.13163e-14 0 38.7072 -10.3293 -6.26658 28.6688 -2.84217e-14 2.84217e-14 -0 0 3.18055e-15 0.607494 2.35752 -7.6e-06 -156.427 -0.000147608 180 10.4683 2.1257 3.51896 -174.331 8.03315 -99.9 7.34534 0 1.9e-06 120.937 -86.1274 -139.161 23.3863 -1.9e-06 1e-06 -56.1057 0.688364 -1.2022 21.504 -2.84217e-14 1.42109e-14 -20.7314 -1.56811 5.69938 1.59262 6.21256 -0.0138378 -0.781705 -26.9338 0.817397 23.3657 0 1e-06 -0 -7.15625e-15 -0 4.20345 4.44573 12.7354 172.377 0.21838 -87.1877 10.4683 2.12572 -3.51895 -171.281 -0.498329 76.5068 7.34534 0 -1.9e-06 -30.8064 66.9301 -35.8938 23.3863 1.9e-06 2.84217e-14 -33.4516 6.36111e-15 1.19271e-15 21.504 3.8e-06 1e-06 -118.477 -17.2599 19.7085 1.59262 6.21257 0.0138388 -11.3633 -0.69122 2.43864 23.3657 0 1e-06 180 -3.18055e-14 9.54166e-15 4.20337 4.4457 -12.7351 172.377 -0.218352 87.1876 -4.78895 3.85983 0.86083 166.06 6.99357 33.211 4.22117 3.815e-05 -5.7e-06 -7.15681 37.049 15.1798 4.97505 3.8e-06 -6.7e-06 -5.09962 9.79619 -2.93315 4.7171 -1.145e-05 2.86e-05 3.18055e-15 -3.18055e-15 -3.18055e-15 9.71734 -4.2e-05 -5.72e-05 2.64834e-31 9.54166e-15 -1.59028e-15 8.26175 8.01e-05 5.7e-06 1.76556e-31 6.36111e-15 -1.59028e-15 9.75986 -6.48e-05 2.86e-05 3.18055e-15 6.36111e-15 -0 11.153 2.67e-05 -2.1e-05 -0 0 -1.59028e-15 10.3039 1.14e-05 4.2e-05 3.18055e-15 0 -1.59028e-15 -11.9878 -1.78568 10.19 170.606 3.62573 1.11034 8.44238 1.53e-05 4.2e-05 -7.95139e-16 1.19271e-15 3.18055e-15 9.95005 7.6e-06 -2.86e-05 2.38542e-15 0 3.18055e-15 9.43418 0 -4.58e-05 -2.38542e-15 -2.38542e-15 -0 9.71733 6.87e-05 0.0001106 -7.95139e-16 0 3.18055e-15 8.26175 -2.29e-05 -4.77e-05 -1.59028e-15 -3.18055e-15 -0 9.75994 2.86e-05 3.05e-05 -0 -1.19271e-15 -0 11.1529 -7.25e-05 -5.91e-05 -1.59028e-15 -3.57812e-15 -0 10.3039 -7.6e-06 0 -2.38542e-15 -3.57812e-15 -0 -1.14e-05 1.53e-05 9.94222 -106.865 18.5118 177.087 25.9795 1e-06 2.84217e-14 -30.3419 -0.443352 -1.12664 21.2087 1.9e-06 -1e-06 48.7589 11.0613 -24.2062 10.4341 -1.9e-06 1e-06 -0.0246386 -1.62755 4.92585 5.66763 6.59832 0 102.486 27.389 -16.9212 8.62785 1.42109e-14 0 -180 -4.37326e-14 6.36111e-15 5.67414 -2.36194 -0.530567 -75.8081 4.38708 5.33411 -2.62874 -3.42539 -3.14618 29.7499 1.82752 90.2264 1.53e-05 -1.53e-05 -9.94222 -127.242 -11.4456 171.271 25.9795 -2.84217e-14 1e-06 -70.2629 -1.55457 2.08103 21.2087 -2.84217e-14 1.9e-06 99.7858 -6.47089 24.5852 10.4341 -1.9e-06 -1e-06 178.792 30.9681 161.236 5.66763 6.59831 0 96.9799 31.5555 -39.544 8.62785 0 0 3.18055e-15 -1.59028e-15 -4.77083e-15 5.67412 -2.36198 0.530356 -75.808 -4.38692 -5.33418 -2.62878 -3.42545 3.14601 29.7498 -1.82753 -90.2266
-62.1185 57.9534 250.553 -95.5082 -29.2253 13.3013 53.2821 -6.35e-05 8.19533 -90 -81.2558 -180 0 0 0 -89.9999 -4.1675e-14 -90 10.4409 -1.622 1.78e-05 -6.49093 3.39426 2.57778 8.8514 -0.0089989 0 -3.4262 2.65186 9.10462 11.3035 -0.0087814 0 -3.30794 3.41175 4.93385 11.0297 -0.0113029 -1.42109e-14 -0.304819 0.938949 -0.14017 14.948 -3.19349 8.6e-06 -26.5891 -14.0425 -10.2671 5.49578 -0.0042877 0 5.31619 -0.105007 7.25771 5.52657 -0.0048637 0 8.16097 17.2982 -6.68778 6.10934 4.26326e-14 -2.84217e-14 40.3603 -10.1199 -6.60089 28.6688 -2.84217e-14 0 -0 0 3.18055e-15 0.607494 2.35752 -7.6e-06 -156.427 -0.000147608 180 10.4683 2.1257 3.51896 -176.068 9.78611 -100.329 7.34534 0 1.9e-06 119.214 -69.9095 -145.966 23.3863 -1.9e-06 1e-06 -40.0333 0.328582 -1.34578 21.504 -2.84217e-14 -2.84217e-14 -75.4569 -5.5584 2.01265 1.59262 6.21256 -0.0138378 6.74182 -13.6533 1.34564 23.3657 0 1e-06 -3.18055e-15 4.77083e-15 -0 4.20345 4.44573 12.7354 172.377 0.21838 -87.1877 10.4683 2.12572 -3.51895 -171.506 -6.03689 74.4244 7.34534 0 -1.9e-06 -35.0529 62.2298 -31.4784 23.3863 1.9e-06 0 -24.6043 -6.36111e-15 -2.38542e-15 21.504 3.8e-06 1e-06 -100.784 -10.0696 22.6752 1.59262 6.21257 0.0138388 -4.25978 4.43041 0.401679 23.3657 0 1e-06 180 -1.16388e-13 -1.09332e-15 4.20337 4.4457 -12.7351 172.377 -0.218352 87.1876 -4.78895 3.85983 0.86083 152.003 4.39885 33.1369 4.22117 3.815e-05 -5.7e-06 -10.8056 33.0607 9.57335 4.97505 3.8e-06 -6.7e-06 -8.18221 11.4983 -5.42138 4.7171 -1.145e-05 2.86e-05 -3.18055e-15 0 2.38542e-15 9.71734 -4.2e-05 -5.72e-05 -0 0 4.77083e-15 8.26175 8.01e-05 5.7e-06 -8.82781e-32 3.18055e-15 1.59028e-15 9.75986 -6.48e-05 2.86e-05 1.59028e-15 -3.18055e-15 1.59028e-15 11.153 2.67e-05 -2.1e-05 1.59028e-15 -3.18055e-15 -5.56597e-15 10.3039 1.14e-05 4.2e-05 1.59028e-15 -3.18055e-15 -6.36111e-15 -11.9878 -1.78568 10.19 170.606 3.62573 1.11034 8.44238 1.53e-05 4.2e-05 -5.96354e-16 -6.95746e-16 -0 9.95005 7.6e-06 -2.86e-05 1.98785e-16 -5.76476e-15 -1.27222e-14 9.43418 1.42109e-14 -4.58e-05 -1.39149e-15 -1.49089e-15 -3.18055e-15 9.71733 6.87e-05 0.0001106 -5.96354e-16 -1.49089e-15 -3.18055e-15 8.26175 -2.29e-05 -4.77e-05 1.19271e-15 -3.08116e-15 -3.18055e-15 9.75994 2.86e-05 3.05e-05 -1.19271e-15 -3.27995e-15 -0 11.1529 -7.25e-05 -5.91e-05 -1.98785e-16 -2.18663e-15 -3.18055e-15 10.3039 -7.6e-06 2.84217e-14 -1.98785e-16 -6.95746e-16 -3.18055e-15 -1.14e-05 1.53e-05 9.94222 -101.302 18.7038 -176.247 25.9795 1e-06 0 -36.812 -0.313559 -1.16942 21.2087 1.9e-06 -1e-06 49.389 14.1809 -20.9416 10.4341 -1.9e-06 1e-06 -5.14165 -2.06121 4.76105 5.66763 6.59832 0 98.2986 22.5633 -12.8104 8.62785 1.77636e-15 0 -180 -5.42682e-14 -0 5.67414 -2.36194 -0.530567 -75.8081 4.38708 5.33411 -2.62874 -3.42539 -3.14618 29.7499 1.82752 90.2264 1.53e-05 -1.53e-05 -9.94222 -125.614 -14.2063 172.004 25.9795 -2.84217e-14 1e-06 -50.0942 -0.741478 2.48936 21.2087 2.84217e-14 1.9e-06 88.4708 -9.87048 29.5149 10.4341 -1.9e-06 -1e-06 -178.981 27.0188 161.804 5.66763 6.59831 -5.68434e-14 95.4947 32.1875 -38.246 8.62785 -2.84217e-14 -2.84217e-14 -3.18055e-15 6.36111e-15 -3.18055e-15 5.67412 -2.36198 0.530355 -75.808 -4.38692 -5.33418 -2.62878 -3.42545 3.14601 29.7498 -1.82753 -90.2266
